# xmcd CD database file
#
# Track frame offsets:
#	150
#	17842
#	38222
#	57730
#	73380
#	88012
#	102432
#	124657
#	149347
#	163800
#
# Disc length: 2536 seconds
#
# Revision: 0
# Processed by: cddbd v1.4PL0 Copyright (c) Steve Scherf et al.
# Submitted via: CDex 1.40Release
#
DISCID=9709e60a
DTITLE=The Climax Blues Band - Gold Plated
DYEAR=1976
DGENRE=Blues
TTITLE0=Together And Free
TTITLE1=Mighty Fire
TTITLE2=Chasing Change
TTITLE3=Berlin Blues
TTITLE4=Couldn't Get It Right
TTITLE5=Rollin' Home
TTITLE6=Sav'ry Gravy
TTITLE7=Extra (Long Version)
TTITLE8=Fat Maybellene
TTITLE9=Chasing Change (12" Disco Version)
EXTD=YEAR: 1976 ID3G: 0
EXTT0=
EXTT1=
EXTT2=
EXTT3=
EXTT4=
EXTT5=
EXTT6=
EXTT7=
EXTT8=
EXTT9=
PLAYORDER=
